<svg xmlns="http://www.w3.org/2000/svg" viewBox="0 0 32 32">
<rect width="32" height="32" rx="7" fill="#008f7d"/>
<polygon points="10.0,8.0 11.06,10.54 13.8,10.76 11.71,12.56 12.35,15.24 10.0,13.8 7.65,15.24 8.29,12.56 6.2,10.76 8.94,10.54" fill="#ffffff" stroke="none"/>
<polygon points="22.0,7.5 22.94,9.71 25.33,9.92 23.52,11.49 24.06,13.83 22.0,12.6 19.94,13.83 20.48,11.49 18.67,9.92 21.06,9.71" fill="#ffffff" stroke="none"/>
<polygon points="16.0,17.8 17.06,20.54 19.99,20.7 17.71,22.56 18.47,25.4 16.0,23.8 13.53,25.4 14.29,22.56 12.01,20.7 14.94,20.54" fill="#ffffff" stroke="none"/>
<line x1="12" y1="13" x2="20" y2="12" fill="none" stroke="#ffffff" stroke-width="1.5" stroke-linecap="round" stroke-linejoin="round"/>
<line x1="12" y1="14" x2="16" y2="20" fill="none" stroke="#ffffff" stroke-width="1.5" stroke-linecap="round" stroke-linejoin="round"/>
<line x1="20" y1="13" x2="17" y2="20" fill="none" stroke="#ffffff" stroke-width="1.5" stroke-linecap="round" stroke-linejoin="round"/>
</svg>
